<svg xmlns="http://www.w3.org/2000/svg" viewBox="0 0 24 24" width="24" height="24"><mask id="am-cut" maskUnits="userSpaceOnUse" x="-2" y="-2" width="28" height="28"><rect x="-2" y="-2" width="28" height="28" fill="#fff"/><circle cx="17.6" cy="17.4" r="6.6" fill="#000"/></mask><g mask="url(#am-cut)"><path d="M9.17 6l2 2H20v10H4V6h5.17M10 4H4c-1.1 0-2 .9-2 2v12c0 1.1.9 2 2 2h16c1.1 0 2-.9 2-2V8c0-1.1-.9-2-2-2h-8l-2-2z" fill="currentColor" fill-rule="evenodd"/><polyline points="8.65,11.60 10.35,12.90 8.65,14.20 10.35,15.50 8.65,16.80" fill="none" stroke="currentColor" stroke-width="1.35" stroke-linejoin="miter"/><rect x="8.0" y="8.0" width="3" height="3.1" rx="1.1" fill="currentColor"/></g><circle cx="17.6" cy="17.4" r="4.9" fill="none" stroke="var(--am-accent, currentColor)" stroke-width="1.7"/><path d="M15.3 17.4H19.900000000000002M17.6 15.099999999999998V19.7" stroke="var(--am-accent, currentColor)" stroke-width="1.7" fill="none"/></svg>
